<svg xmlns="http://www.w3.org/2000/svg" viewBox="0 0 48 48" width="48" height="48" role="img" aria-label="Stabana">
  <style>
    /* На светлых вкладках — тёмный закруглённый медальон с белым логотипом
       (как на экране входа). На тёмных вкладках медальон скрыт, белый логотип
       читается прямо на фоне. */
    .bg { fill: #0f172a; }
    .gear { fill: #ffffff; }
    @media (prefers-color-scheme: dark) {
      .bg { display: none; }
    }
  </style>
  <rect class="bg" x="0" y="0" width="48" height="48" rx="11"/>
  <path class="gear" d="M 41.86 26.26 L 44.90 29.06 L 43.26 33.56 L 39.13 33.75 L 36.23 37.21 L 36.76 41.31 L 32.61 43.70 L 29.32 41.20 L 24.88 41.98 L 22.65 45.46 L 17.93 44.63 L 17.02 40.59 L 13.12 38.34 L 9.17 39.57 L 6.09 35.90 L 7.99 32.23 L 6.45 27.99 L 2.63 26.40 L 2.63 21.60 L 6.45 20.01 L 7.99 15.77 L 6.09 12.10 L 9.17 8.43 L 13.12 9.66 L 17.02 7.41 L 17.93 3.37 L 22.65 2.54 L 24.88 6.02 L 29.32 6.80 L 32.61 4.30 L 36.76 6.69 L 36.23 10.79 L 39.13 14.25 L 43.26 14.44 L 44.90 18.94 L 41.86 21.74 Z"/>
  <path d="M24 24 L11.6 24 A12.4 12.4 0 0 1 24 11.6 Z" fill="#16a34a"/>
  <path d="M24 24 L24 11.6 A12.4 12.4 0 0 1 36.4 24 Z" fill="#3b82f6"/>
  <path d="M24 24 L36.4 24 A12.4 12.4 0 0 1 24 36.4 Z" fill="#dc2626"/>
  <path d="M24 24 L24 36.4 A12.4 12.4 0 0 1 11.6 24 Z" fill="#ea580c"/>
  <path d="M 18.21 24.09 L 22.55 28.43 L 30.20 18.93" fill="none" stroke="#ffffff" stroke-width="2.3" stroke-linecap="round" stroke-linejoin="round"/>
</svg>
